<?xml version="1.0" encoding="UTF-8" standalone="no"?>
<svg
   width="240mm"
   height="240mm"
   viewBox="0 0 240 240"
   version="1.1"
   id="svg8"
   inkscape:version="1.2 (dc2aedaf03, 2022-05-15)"
   sodipodi:docname="system-bridge.svg"
   inkscape:export-filename="system-bridge.png"
   inkscape:export-xdpi="54.186668"
   inkscape:export-ydpi="54.186668"
   xmlns:inkscape="http://www.inkscape.org/namespaces/inkscape"
   xmlns:sodipodi="http://sodipodi.sourceforge.net/DTD/sodipodi-0.dtd"
   xmlns="http://www.w3.org/2000/svg"
   xmlns:svg="http://www.w3.org/2000/svg"
   xmlns:rdf="http://www.w3.org/1999/02/22-rdf-syntax-ns#"
   xmlns:cc="http://creativecommons.org/ns#"
   xmlns:dc="http://purl.org/dc/elements/1.1/">
  <title
     id="title103">System Bridge</title>
  <defs
     id="defs2" />
  <sodipodi:namedview
     id="base"
     pagecolor="#ffffff"
     bordercolor="#666666"
     borderopacity="1.0"
     inkscape:pageopacity="0.0"
     inkscape:pageshadow="2"
     inkscape:zoom="1"
     inkscape:cx="109"
     inkscape:cy="347"
     inkscape:document-units="mm"
     inkscape:current-layer="layer1"
     inkscape:document-rotation="0"
     showgrid="false"
     inkscape:snap-global="true"
     inkscape:window-width="2560"
     inkscape:window-height="1494"
     inkscape:window-x="-11"
     inkscape:window-y="-11"
     inkscape:window-maximized="1"
     inkscape:showpageshadow="2"
     inkscape:pagecheckerboard="0"
     inkscape:deskcolor="#d1d1d1" />
  <metadata
     id="metadata5">
    <rdf:RDF>
      <cc:Work
         rdf:about="">
        <dc:format>image/svg+xml</dc:format>
        <dc:type
           rdf:resource="http://purl.org/dc/dcmitype/StillImage" />
        <dc:title>System Bridge</dc:title>
      </cc:Work>
    </rdf:RDF>
  </metadata>
  <g
     inkscape:label="Layer 1"
     inkscape:groupmode="layer"
     id="layer1">
    <path
       d="m 44.613417,60.768136 v 15.399961 c 17.207526,15.008931 40.101202,25.180633 65.591563,27.276383 2.07141,2.50733 4.33549,5.24757 6.80192,8.23284 0.93378,1.1302 1.89649,2.29529 2.88874,3.49642 h 14.44487 v 17.48372 h -28.69987 v -17.48372 h 14.255 c -0.9749,-1.18014 -1.93881,-2.34667 -2.88874,-3.49642 h -11.36626 c -1.99232,0 -3.59003,1.55576 -3.59003,3.49642 v 17.48372 c 1.8e-4,1.93091 1.60712,3.49628 3.58953,3.49642 h -7.179075 v -23.2617 c -7.430894,-1.29029 -14.646501,-3.12216 -21.53927,-5.60022 v 28.86184 h 21.53927 v 3.497 h 43.077445 v -3.497 h 21.53924 v -28.86184 c -6.89223,2.47476 -14.10805,4.30785 -21.53924,5.60022 v 23.2617 h -7.1791 c 1.98228,-1.4e-4 3.58942,-1.56532 3.58954,-3.49642 v -17.48372 c 0,-1.94071 -1.61574,-3.49642 -3.59004,-3.49642 H 117.0069 c -2.36412,-2.86142 -4.64358,-5.62044 -6.80192,-8.23284 3.22556,0.26522 6.49282,0.40095 9.79528,0.40095 29.40054,0 56.00074,-10.769227 75.3858,-27.677452 V 60.768136 h 21.53928 v 75.385744 h 21.53873 v 21.53925 h -21.53873 v 21.53873 H 195.38606 V 157.69313 H 44.613417 v 21.53873 H 23.074673 V 157.69313 H 1.535929 V 136.15388 H 23.074673 V 60.768136 Z m 152.469323,1.837 v 4.218005 c 2.4e-4,0.582307 0.47239,1.053982 1.05445,1.053982 h 16.87047 c 0.58231,4.7e-5 1.05423,-0.471674 1.05446,-1.053982 v -4.218005 c -2.6e-4,-0.582306 -0.47239,-1.053982 -1.05446,-1.053982 h -16.87047 c -0.5823,-7.2e-5 -1.05421,0.471676 -1.05445,1.053982 z m -172.376033,2.94993 v 24.437158 c 0,1.686945 1.367716,3.054636 3.054636,3.054636 h 12.218592 c 1.686944,0 3.054612,-1.367716 3.054612,-3.054636 V 65.555066 c 0,-1.686945 -1.367715,-3.054635 -3.054612,-3.054635 H 27.761343 c -1.686943,0 -3.054636,1.367713 -3.054636,3.054635 z M 201.30024,63.659524 v 2.108918 h -2.10844 v -2.108918 z m 3.1635,0 v 2.108918 h -1.05446 V 63.659524 Z M 39.979935,65.555066 v 3.054636 H 27.761343 v -3.054636 z m 157.102805,5.485532 v 4.217504 c -8e-5,0.582307 0.47215,1.05446 1.05445,1.05446 h 16.87047 c 0.58231,7.2e-5 1.05446,-0.472153 1.05446,-1.05446 v -4.217504 c 5e-5,-0.582306 -0.47215,-1.05446 -1.05446,-1.05446 h -16.87047 c -0.5823,-4.7e-5 -1.05445,0.472154 -1.05445,1.05446 z M 39.979935,71.664481 v 3.054636 H 27.761343 v -3.054636 z m 161.320305,0.430815 v 2.108442 h -2.10844 v -2.108442 z m 3.1635,0 v 2.108442 h -1.05446 v -2.108442 z m -7.381,7.381003 v 4.217506 c -8e-5,0.582306 0.47215,1.054699 1.05445,1.054459 h 16.87047 c 0.58231,7.3e-5 1.05446,-0.472153 1.05446,-1.054459 v -4.217506 c 5e-5,-0.582305 -0.47215,-1.054698 -1.05446,-1.054459 h -16.87047 c -0.5823,-7.1e-5 -1.05445,0.472154 -1.05445,1.054459 z m 4.2175,1.053983 v 2.10892 h -2.10844 v -2.10892 z m 3.1635,0 v 2.10892 h -1.05446 v -2.10892 z M 39.979935,86.937731 v 3.054637 h -3.054636 v -3.054637 z m 4.633482,49.216219 H 66.152686 V 102.87627 C 58.398668,99.322838 51.182991,95.014421 44.613417,89.952919 Z M 173.84732,102.87627 v 33.27768 h 21.53874 V 89.952989 c -6.56912,5.061502 -13.78474,9.369088 -21.53874,12.923351 z m -68.20673,33.27768 c -1.8e-4,0 -3.3e-4,0 -5.3e-4,0 z m 28.71832,0 h 5e-4 c -1.8e-4,0 -3.2e-4,0 -5e-4,0 z"
       id="path31"
       fill="#ffffff"
       stroke-width="0"
       style="mix-blend-mode:normal;fill:#ffffff" />
  </g>
</svg>
