<?xml version="1.0" encoding="UTF-8"?>
<svg width="63.366mm" height="31.683mm" version="1.1" viewBox="0 0 63.366 31.683"
  xmlns="http://www.w3.org/2000/svg"
  xmlns:cc="http://creativecommons.org/ns#"
  xmlns:dc="http://purl.org/dc/elements/1.1/"
  xmlns:rdf="http://www.w3.org/1999/02/22-rdf-syntax-ns#">
  <title>System Bridge</title>
  <metadata>
    <rdf:RDF>
      <cc:Work rdf:about="">
        <dc:format>image/svg+xml</dc:format>
        <dc:type rdf:resource="http://purl.org/dc/dcmitype/StillImage"/>
        <dc:title>System Bridge</dc:title>
      </cc:Work>
    </rdf:RDF>
  </metadata>
  <g transform="matrix(.27231 0 0 .27231 -.99441 -16.836)" fill="#fff">
    <path d="m45.96 61.826v15.125c16.9 14.741 39.385 24.731 64.42 26.789 2.0344 2.4625 4.258 5.1538 6.6804 8.0857 0.9171 1.11 1.8626 2.2543 2.8371 3.4339h14.187v17.171h-28.187v-17.171h14c-0.95748-1.159-1.9042-2.3047-2.8371-3.4339h-11.163c-1.9567 0-3.5259 1.528-3.5259 3.4339v17.171c1.8e-4 1.8964 1.5784 3.4338 3.5254 3.434h-7.0508v-22.846c-7.2981-1.2672-14.385-3.0664-21.154-5.5002v28.346h21.154v3.4345h42.308v-3.4345h21.154v-28.346c-6.7691 2.4305-13.856 4.2309-21.154 5.5002v22.846h-7.0508c1.9469-1.4e-4 3.5253-1.5374 3.5254-3.434v-17.171c0-1.906-1.5869-3.4339-3.5259-3.4339h-17.042c-2.3219-2.8103-4.5606-5.52-6.6804-8.0857 3.1679 0.26048 6.3768 0.39378 9.6203 0.39378 28.875 0 55-10.577 74.039-27.183v-15.125h21.154v74.039h21.154v21.154h-21.154v21.154h-21.154v-21.154h-148.08v21.154h-21.154v-21.154h-21.154v-21.154h21.154v-74.039zm149.75 1.8042v4.1426c2.4e-4 0.5719 0.46395 1.0352 1.0356 1.0352h16.569c0.5719 4.6e-5 1.0354-0.46325 1.0356-1.0352v-4.1426c-2.6e-4 -0.5719-0.46395-1.0351-1.0356-1.0351h-16.569c-0.57189-7.1e-5 -1.0354 0.46325-1.0356 1.0351zm-169.3 2.8972v24.001c0 1.6568 1.3433 3.0001 3.0001 3.0001h12c1.6568 0 3-1.3433 3-3.0001v-24.001c0-1.6568-1.3433-3.0001-3-3.0001h-12c-1.6568 0-3.0001 1.3433-3.0001 3.0001zm173.44-1.8617v2.0712h-2.0708v-2.0712zm3.107 0v2.0712h-1.0356v-2.0712zm-161.54 1.8617v3.0001h-12v-3.0001zm154.3 5.3875v4.1421c-7e-5 0.5719 0.46372 1.0356 1.0356 1.0356h16.569c0.5719 7.1e-5 1.0356-0.46372 1.0356-1.0356v-4.1421c5e-5 -0.5719-0.46372-1.0356-1.0356-1.0356h-16.569c-0.57189-4.6e-5 -1.0356 0.46372-1.0356 1.0356zm-154.3 0.61274v3.0001h-12v-3.0001zm158.44 0.42312v2.0708h-2.0708v-2.0708zm3.107 0v2.0708h-1.0356v-2.0708zm-7.2491 7.2491v4.1421c-7e-5 0.5719 0.46372 1.0359 1.0356 1.0356h16.569c0.5719 7.2e-5 1.0356-0.46372 1.0356-1.0356v-4.1421c5e-5 -0.5719-0.46372-1.0359-1.0356-1.0356h-16.569c-0.57189-6.9e-5 -1.0356 0.46372-1.0356 1.0356zm4.1422 1.0352v2.0712h-2.0708v-2.0712zm3.107 0v2.0712h-1.0356v-2.0712zm-161.54 6.293v3.0001h-3.0001v-3.0001zm4.5507 48.337h21.154v-32.683c-7.6155-3.4899-14.702-7.7214-21.154-12.692zm126.92-32.683v32.683h21.154v-45.375c-6.4518 4.9711-13.538 9.2017-21.154 12.692zm-66.988 32.683h-5.2e-4zm28.205 0h4.9e-4z" fill="#fff" stroke-width="0" style="mix-blend-mode:normal"/>
  </g>
</svg>
