<?xml version="1.0" encoding="UTF-8" standalone="no"?>
<svg xmlns:dc="http://purl.org/dc/elements/1.1/"
  xmlns:cc="http://creativecommons.org/ns#"
  xmlns:rdf="http://www.w3.org/1999/02/22-rdf-syntax-ns#"
  xmlns:svg="http://www.w3.org/2000/svg"
  xmlns="http://www.w3.org/2000/svg"
  xmlns:sodipodi="http://sodipodi.sourceforge.net/DTD/sodipodi-0.dtd"
  xmlns:inkscape="http://www.inkscape.org/namespaces/inkscape" version="1.1" width="256" height="256">
  <title id="title54">System Bridge Curcle</title>
  <metadata id="metadata52">
    <rdf:RDF>
      <cc:Work rdf:about="">
        <dc:format>image/svg+xml</dc:format>
        <dc:type rdf:resource="http://purl.org/dc/dcmitype/StillImage" />
        <dc:title>System Bridge Curcle</dc:title>
      </cc:Work>
    </rdf:RDF>
  </metadata>
  <sodipodi:namedview pagecolor="#ffffff" bordercolor="#666666" borderopacity="1" objecttolerance="10" gridtolerance="10" guidetolerance="10" inkscape:pageopacity="0" inkscape:pageshadow="2" inkscape:window-width="1611" inkscape:window-height="1551" id="namedview50" showgrid="false" inkscape:zoom="10.5" inkscape:cx="28.677941" inkscape:cy="24.463948" inkscape:window-x="0" inkscape:window-y="0" inkscape:window-maximized="0" inkscape:current-layer="g46" />
  <defs id="defs25">
    <linearGradient x1="5.2618" y1="14.63092" x2="75.28625" y2="65.91711" gradientUnits="userSpaceOnUse" id="color-1">
      <stop offset="0" stop-color="#000000" stop-opacity="0.3" id="stop2" />
      <stop offset="1" stop-color="#000000" stop-opacity="0" id="stop4" />
    </linearGradient>
    <filter id="dropshadow-base">
      <feColorMatrix type="matrix" values="0 0 0 0 0  0 0 0 0 0  0 0 0 0 0  0 0 0 .8 0" id="feColorMatrix7" />
      <feOffset dx="0" dy="1" id="feOffset9" />
      <feGaussianBlur stdDeviation="1" id="feGaussianBlur11" result="result1" />
      <feComposite in="SourceGraphic" in2="result1" id="feComposite13" />
    </filter>
    <filter id="dropshadow-banner" x="-10%" y="-10%" width="120%" height="130%">
      <feColorMatrix type="matrix" values="0 0 0 0 0  0 0 0 0 0  0 0 0 0 0  0 0 0 .4 0" id="feColorMatrix16" />
      <feOffset dx="0" dy="1" id="feOffset18" />
      <feGaussianBlur stdDeviation="0.5" id="feGaussianBlur20" result="result1" />
      <feComposite in="SourceGraphic" in2="result1" id="feComposite22" />
    </filter>
  </defs>
  <g fill="none" fill-rule="nonzero" stroke="none" stroke-width="none" stroke-linecap="butt" stroke-linejoin="miter" stroke-miterlimit="10" stroke-dasharray="" stroke-dashoffset="0" font-family="none" font-weight="none" font-size="none" text-anchor="none" style="mix-blend-mode: normal" id="g46">
    <path d="M2,24c0,-12.15026 9.84974,-22 22,-22c12.15026,0 22,9.84974 22,22c0,12.15026 -9.84974,22 -22,22c-12.15026,0 -22,-9.84974 -22,-22z" id="base 1 5" fill="#512da8" stroke-width="1" />
    <path d="m 5.2618,29.96216 v -3.407 H 8.66872 V 14.63092 h 3.40692 l 5.77606,5.77606 c 1.4469,0.50644 2.99022,0.84206 4.59893,0.97433 l 0.66605,0.04289 c 0.29254,0.01364 0.58705,0.02056 0.88337,0.02056 4.65047,0 8.858,-1.70343 11.92424,-4.37792 v -2.43591 h 3.407 l 6.48081,6.48081 c 0.12395,0.94519 0.18789,1.90926 0.18789,2.88827 0,12.15026 -9.84974,22 -22,22 -0.979,0 -1.94307,-0.06395 -2.88825,-0.18789 z" fill="url(#color-1)" stroke-width="1" id="path28" sodipodi:nodetypes="ccccccccsccccsscc" />
    <path d="M8.66871,14.63092v11.92424h-3.40692v3.407h3.40692v3.40692h3.40692v-3.40692h23.84866v3.40692h3.407v-3.40692h3.40692v-3.407h-3.40692v-11.92424h-3.407v2.43591c-3.06625,2.67448 -7.27378,4.37792 -11.92425,4.37792c-4.65047,0 -8.85816,-1.70344 -11.92441,-4.37792v-2.43591zM36.35946,14.75479h2.66851c0.09209,-0.00001 0.16676,0.07462 0.1668,0.16671v0.66719c-0.00004,0.09209 -0.07471,0.16672 -0.1668,0.16671h-2.66851c-0.09209,0.00001 -0.16676,-0.07462 -0.1668,-0.16671v-0.66719c0.00004,-0.09209 0.07471,-0.16672 0.1668,-0.16671zM9.41003,14.90495h1.93269c0.26685,0 0.48317,0.21633 0.48317,0.48317v3.86538c0,0.26685 -0.21633,0.48317 -0.48317,0.48317h-1.93269c-0.26685,0 -0.48317,-0.21633 -0.48317,-0.48317v-3.86538c0,-0.26685 0.21633,-0.48317 0.48317,-0.48317zM36.52626,15.0883v0.3336h0.33351v-0.3336zM37.19336,15.0883v0.3336h0.1668v-0.3336zM9.41003,15.38812v0.48317h1.93269v-0.48317zM36.35946,16.08901h2.66851c0.09212,-0.00001 0.16681,0.07467 0.1668,0.1668v0.66711c0.00001,0.09212 -0.07467,0.16681 -0.1668,0.1668h-2.66851c-0.09212,0.00001 -0.16681,-0.07467 -0.1668,-0.1668v-0.66711c-0.00001,-0.09212 0.07467,-0.16681 0.1668,-0.1668zM9.41003,16.35447v0.48317h1.93269v-0.48317zM36.52626,16.4226v0.33351h0.33351v-0.33351zM37.19336,16.4226v0.33351h0.1668v-0.33351zM36.35946,17.4233h2.66851c0.09212,-0.00001 0.16681,0.07467 0.1668,0.1668v0.66711c0.00001,0.09212 -0.07467,0.16681 -0.1668,0.1668h-2.66851c-0.09212,0.00001 -0.16681,-0.07467 -0.1668,-0.1668v-0.66711c-0.00001,-0.09212 0.07467,-0.16681 0.1668,-0.1668zM36.52626,17.75682v0.3336h0.33351v-0.3336zM37.19336,17.75682v0.3336h0.1668v-0.3336zM10.85955,18.77033v0.48317h0.48317v-0.48317zM12.07563,19.24726c1.03915,0.80061 2.18049,1.4821 3.407,2.04417v5.26374h-3.407zM35.92429,19.24726v7.3079h-3.40692v-5.26374c1.2265,-0.5622 2.36784,-1.24356 3.40692,-2.04417zM17.18604,21.9899c1.09026,0.39197 2.23161,0.68172 3.407,0.88582v3.67945h1.13564c-0.3136,0.00002 -0.56784,-0.24759 -0.56786,-0.55305v-2.76551c0,-0.30697 0.25272,-0.55305 0.56786,-0.55305h4.54255c0.3123,0 0.56786,0.24608 0.56786,0.55305v2.76551c-0.00003,0.30546 -0.25426,0.55307 -0.56786,0.55305h1.13564v-3.67945c1.17544,-0.20441 2.3168,-0.49436 3.407,-0.88582v4.56526h-3.407v0.55314h-6.81383v-0.55314h-3.407zM26.26832,26.00211c-11.74306,-14.21349 -5.87153,-7.10675 0,0zM26.26832,26.00211v-2.76551h-4.53964v2.76551z" id="path10 1 1" fill="none" stroke-width="0" />
    <path d="M12.07563,14.63092v2.43591c2.72182,2.37406 6.34306,3.98298 10.37503,4.31448c0.32766,0.3966 0.68577,0.83004 1.0759,1.30224c0.14769,0.17876 0.29997,0.36308 0.45693,0.55305l2.28484,0v2.76551h-4.53964v-2.76551h2.2548c-0.15422,-0.18666 -0.30665,-0.37117 -0.45693,-0.55305l-1.79787,0c-0.31514,0 -0.56786,0.24608 -0.56786,0.55305v2.76551c0.00003,0.30544 0.25422,0.55303 0.56778,0.55305l-1.13556,0v-3.67945c-1.17539,-0.20409 -2.31673,-0.49385 -3.407,-0.88582v4.56526h3.407v0.55314h6.81383v-0.55314h3.407v-4.56526c-1.09019,0.39145 -2.23156,0.6814 -3.407,0.88582v3.67945h-1.13556c0.31356,-0.00002 0.56776,-0.24761 0.56778,-0.55305v-2.76551c0,-0.30697 -0.25556,-0.55305 -0.56786,-0.55305h-2.74468c-0.37394,-0.45261 -0.7345,-0.88902 -1.0759,-1.30224c0.51021,0.04195 1.02701,0.06344 1.54938,0.06344c4.65047,0 8.85799,-1.70344 11.92425,-4.37792v-2.43591h3.407v11.92424h3.40692v3.407h-3.40692v3.40692h-3.407v-3.40692h-23.84866v3.40692h-3.40692v-3.40692h-3.40692v-3.407h3.40692v-11.92424zM36.19266,14.92151v0.66719c0.00004,0.09209 0.07471,0.16672 0.1668,0.16671h2.66851c0.09209,0.00001 0.16676,-0.07462 0.1668,-0.16671v-0.66719c-0.00004,-0.09209 -0.07471,-0.16672 -0.1668,-0.16671h-2.66851c-0.09209,-0.00001 -0.16676,0.07462 -0.1668,0.16671zM8.92686,15.38812v3.86538c0,0.26685 0.21633,0.48317 0.48317,0.48317h1.93269c0.26685,0 0.48317,-0.21633 0.48317,-0.48317v-3.86538c0,-0.26685 -0.21633,-0.48317 -0.48317,-0.48317h-1.93269c-0.26685,0 -0.48317,0.21633 -0.48317,0.48317zM36.85977,15.0883v0.3336h-0.33351v-0.3336zM37.36016,15.0883v0.3336h-0.1668v-0.3336zM11.34272,15.38812v0.48317h-1.93269v-0.48317zM36.19266,16.2558v0.66711c-0.00001,0.09212 0.07467,0.16681 0.1668,0.1668h2.66851c0.09212,0.00001 0.16681,-0.07467 0.1668,-0.1668v-0.66711c0.00001,-0.09212 -0.07467,-0.16681 -0.1668,-0.1668h-2.66851c-0.09212,-0.00001 -0.16681,0.07467 -0.1668,0.1668zM11.34272,16.35447v0.48317h-1.93269v-0.48317zM36.85977,16.4226v0.33351h-0.33351v-0.33351zM37.36016,16.4226v0.33351h-0.1668v-0.33351zM36.19266,17.5901v0.66711c-0.00001,0.09212 0.07467,0.16681 0.1668,0.1668h2.66851c0.09212,0.00001 0.16681,-0.07467 0.1668,-0.1668v-0.66711c0.00001,-0.09212 -0.07467,-0.16681 -0.1668,-0.1668h-2.66851c-0.09212,-0.00001 -0.16681,0.07467 -0.1668,0.1668zM36.85977,17.75682v0.3336h-0.33351v-0.3336zM37.36016,17.75682v0.3336h-0.1668v-0.3336zM11.34272,18.77033v0.48317h-0.48317v-0.48317zM12.07563,26.55517h3.407v-5.26374c-1.2265,-0.56207 -2.36785,-1.24356 -3.407,-2.04417zM32.51737,21.29143v5.26374h3.40692v-7.3079c-1.03908,0.80061 -2.18042,1.48197 -3.40692,2.04417zM21.72868,26.55517c-0.00003,0 -0.00005,0 -0.00008,0zM26.27124,26.55517h0.00008c-0.00003,0 -0.00005,0 -0.00008,0z" id="path31" fill="#ffffff" stroke-width="0" />
    <path d="M2,24c0,-12.15026 9.84974,-22 22,-22c12.15026,0 22,9.84974 22,22c0,12.15026 -9.84974,22 -22,22c-12.15026,0 -22,-9.84974 -22,-22z" id="base 1 1 1" fill="none" stroke-width="1" />
    <g id="svg8 1 1" fill="#000000" stroke-width="1" font-family="Roboto, sans-serif" font-weight="400" font-size="14" text-anchor="start">
      <g id="layer1 1 1" />
    </g>
    <rect x="2" y="2" width="44" height="22" fill="none" stroke-width="1" id="rect36" />
    <path d="M2,24v-22h44v22z" fill="none" stroke-width="1" id="path38" />
    <path d="M2,24v-22h44v22z" fill="none" stroke-width="1" id="path40" />
    <path d="M2,24v-22h44v22z" fill="none" stroke-width="1" id="path42" />
    <path d="M2,24v-22h44v22z" fill="none" stroke-width="1" id="path44" />
  </g>
</svg>
