<?xml version="1.0" standalone="no"?>
<!DOCTYPE svg PUBLIC "-//W3C//DTD SVG 20010904//EN"
 "http://www.w3.org/TR/2001/REC-SVG-20010904/DTD/svg10.dtd">
<svg version="1.0" xmlns="http://www.w3.org/2000/svg"
 width="700.000000pt" height="700.000000pt" viewBox="0 0 700.000000 700.000000"
 preserveAspectRatio="xMidYMid meet">
<metadata>
Created by potrace 1.11, written by Peter Selinger 2001-2013
</metadata>
<g transform="translate(0.000000,700.000000) scale(0.100000,-0.100000)"
fill="#000000" stroke="none">
<path d="M3315 6704 c-864 -57 -1640 -433 -2212 -1073 -371 -415 -642 -958
-747 -1498 -47 -241 -59 -371 -59 -633 0 -262 12 -392 58 -630 171 -877 735
-1671 1510 -2129 1181 -698 2656 -573 3710 314 514 433 890 1045 1045 1700 63
268 84 450 84 745 0 251 -9 351 -50 580 -154 850 -659 1615 -1384 2094 -153
101 -186 120 -348 201 -328 163 -663 263 -1042 310 -125 15 -452 26 -565 19z
m-1555 -2013 l0 -179 68 -54 c97 -79 165 -128 267 -190 534 -329 1179 -458
1816 -363 455 68 909 267 1262 553 l67 54 0 179 0 179 248 -2 247 -3 3 -867 2
-868 245 0 245 0 0 -250 0 -250 -245 0 -245 0 -2 -247 -3 -248 -247 -3 -248
-2 0 250 0 250 -1740 0 -1740 0 0 -250 0 -250 -247 2 -248 3 -3 248 -2 247
-245 0 -245 0 0 250 0 250 245 0 245 0 0 863 c0 475 3 867 7 870 3 4 116 7
250 7 l243 0 0 -179z"/>
<path d="M5284 4836 c-3 -7 -4 -40 -2 -72 l3 -59 204 -3 c142 -2 208 1 217 9
17 14 19 110 2 127 -18 18 -417 17 -424 -2z m94 -58 c-2 -15 -11 -24 -25 -26
-19 -3 -23 1 -23 22 0 21 5 26 26 26 21 0 25 -4 22 -22z m72 -3 c0 -16 -6 -25
-15 -25 -9 0 -15 9 -15 25 0 16 6 25 15 25 9 0 15 -9 15 -25z"/>
<path d="M1343 4820 c-12 -5 -26 -18 -32 -29 -7 -13 -11 -127 -11 -321 l0
-301 25 -24 c24 -24 28 -25 180 -25 151 0 189 6 207 34 4 6 8 151 8 323 l0
312 -26 20 c-24 19 -40 21 -178 20 -83 0 -161 -4 -173 -9z m307 -95 l0 -35
-140 0 -140 0 0 28 c0 16 3 32 7 35 3 4 66 7 140 7 l133 0 0 -35z m0 -145 l0
-41 -137 3 c-136 3 -138 3 -141 26 -7 50 -2 52 143 52 l135 0 0 -40z m0 -356
c0 -34 -1 -35 -32 -32 -29 3 -33 7 -36 36 -3 31 -2 32 32 32 35 0 36 -1 36
-36z"/>
<path d="M5282 4583 l3 -68 209 -3 c161 -2 211 1 218 10 9 15 11 89 2 112 -5
14 -34 16 -221 16 l-214 0 3 -67z m96 0 c3 -19 -1 -23 -22 -23 -21 0 -26 5
-26 26 0 21 4 25 23 22 14 -2 23 -11 25 -25z m72 -4 c0 -10 -7 -19 -15 -19
-15 0 -21 31 -9 43 11 10 24 -3 24 -24z"/>
<path d="M5284 4446 c-3 -7 -4 -40 -2 -72 l3 -59 204 -3 c142 -2 208 1 217 9
17 14 19 110 2 127 -18 18 -417 17 -424 -2z m94 -58 c-2 -15 -11 -24 -25 -26
-19 -3 -23 1 -23 22 0 21 5 26 26 26 21 0 25 -4 22 -22z m72 -3 c0 -16 -6 -25
-15 -25 -9 0 -15 9 -15 25 0 16 6 25 15 25 9 0 15 -9 15 -25z"/>
<path d="M1760 3661 l0 -531 250 0 250 0 0 383 0 383 -52 24 c-108 47 -259
138 -429 259 -19 13 -19 6 -19 -518z"/>
<path d="M5165 4139 c-89 -65 -247 -159 -347 -207 l-78 -37 0 -382 0 -383 250
0 250 0 0 530 c0 292 -1 530 -3 530 -1 0 -34 -23 -72 -51z"/>
<path d="M2510 3461 l0 -331 245 0 245 0 0 -40 0 -40 500 0 500 0 0 40 0 40
245 0 245 0 0 331 c0 311 -1 331 -17 324 -80 -30 -338 -97 -425 -110 l-48 -7
0 -269 0 -269 -67 0 -66 0 21 23 c21 23 22 31 22 259 l0 237 -26 20 c-26 20
-38 21 -384 21 -346 0 -358 -1 -384 -21 l-26 -20 0 -237 c0 -228 1 -236 22
-259 l21 -23 -66 0 -67 0 0 269 0 269 -47 7 c-88 13 -346 80 -425 110 -17 7
-18 -13 -18 -324z m1320 -51 l0 -200 -330 0 -330 0 0 200 0 200 330 0 330 0 0
-200z"/>
</g>
</svg>
