<?xml version="1.0" encoding="UTF-8" standalone="no"?>
<svg
   xmlns:dc="http://purl.org/dc/elements/1.1/"
   xmlns:cc="http://creativecommons.org/ns#"
   xmlns:rdf="http://www.w3.org/1999/02/22-rdf-syntax-ns#"
   xmlns:svg="http://www.w3.org/2000/svg"
   xmlns="http://www.w3.org/2000/svg"
   xmlns:sodipodi="http://sodipodi.sourceforge.net/DTD/sodipodi-0.dtd"
   xmlns:inkscape="http://www.inkscape.org/namespaces/inkscape"
   width="240mm"
   height="240mm"
   viewBox="0 0 240 240"
   version="1.1"
   id="svg8"
   inkscape:version="1.0.2 (e86c870879, 2021-01-15, custom)"
   sodipodi:docname="system-bridge.svg">
  <title
     id="title103">System Bridge</title>
  <defs
     id="defs2" />
  <sodipodi:namedview
     id="base"
     pagecolor="#ffffff"
     bordercolor="#666666"
     borderopacity="1.0"
     inkscape:pageopacity="0.0"
     inkscape:pageshadow="2"
     inkscape:zoom="1"
     inkscape:cx="191.4933"
     inkscape:cy="-43.845596"
     inkscape:document-units="mm"
     inkscape:current-layer="layer1"
     inkscape:document-rotation="0"
     showgrid="false"
     inkscape:snap-global="true"
     inkscape:window-width="3840"
     inkscape:window-height="2080"
     inkscape:window-x="-11"
     inkscape:window-y="-11"
     inkscape:window-maximized="1" />
  <metadata
     id="metadata5">
    <rdf:RDF>
      <cc:Work
         rdf:about="">
        <dc:format>image/svg+xml</dc:format>
        <dc:type
           rdf:resource="http://purl.org/dc/dcmitype/StillImage" />
        <dc:title>System Bridge</dc:title>
      </cc:Work>
    </rdf:RDF>
  </metadata>
  <g
     inkscape:label="Layer 1"
     inkscape:groupmode="layer"
     id="layer1">
    <path
       d="m 45.960397,61.826469 v 15.1248 c 16.900068,14.740757 39.384688,24.730711 64.419593,26.789021 2.0344,2.46253 4.25803,5.15381 6.68039,8.08574 0.9171,1.11 1.8626,2.25428 2.83712,3.43394 h 14.18678 v 17.17133 h -28.18707 v -17.17133 h 14.00029 c -0.95748,-1.15905 -1.90416,-2.30474 -2.83712,-3.43394 h -11.16317 c -1.95672,0 -3.52589,1.52796 -3.52589,3.43394 v 17.17133 c 1.8e-4,1.89641 1.57841,3.43381 3.5254,3.43395 h -7.050805 v -22.84607 c -7.298122,-1.26724 -14.384803,-3.06637 -21.154414,-5.50016 v 28.34615 h 21.154414 v 3.43452 h 42.307755 v -3.43452 h 21.15438 v -28.34615 c -6.76908,2.43054 -13.85597,4.23088 -21.15438,5.50016 v 22.84607 h -7.05083 c 1.94686,-1.4e-4 3.52529,-1.53735 3.5254,-3.43395 v -17.17133 c 0,-1.90603 -1.58687,-3.43394 -3.52589,-3.43394 h -17.04197 c -2.32188,-2.8103 -4.56061,-5.52002 -6.68039,-8.08574 3.16793,0.26048 6.37681,0.39378 9.62027,0.39378 28.87522,0 55.00013,-10.576802 74.03883,-27.182917 V 61.826469 h 21.15442 v 74.038781 h 21.15389 v 21.15439 h -21.15389 v 21.15389 H 194.03909 V 157.01964 H 45.960397 v 21.15389 H 24.806499 V 157.01964 H 3.6526018 V 135.86525 H 24.806499 V 61.826469 Z m 149.745053,1.804177 v 4.14264 c 2.4e-4,0.571902 0.46395,1.03515 1.03561,1.03515 h 16.56904 c 0.5719,4.6e-5 1.03539,-0.463247 1.03562,-1.03515 v -4.14264 c -2.6e-4,-0.571901 -0.46395,-1.035149 -1.03562,-1.035149 h -16.56904 c -0.57189,-7.1e-5 -1.03537,0.463248 -1.03561,1.035149 z M 26.409373,66.527868 v 24.000524 c 0,1.656803 1.343278,3.000057 3.000057,3.000057 h 12.000274 c 1.656803,0 3.000034,-1.343278 3.000034,-3.000057 V 66.527868 c 0,-1.656803 -1.343278,-3.000056 -3.000034,-3.000056 H 29.40943 c -1.656802,0 -3.000057,1.343276 -3.000057,3.000056 z M 199.8476,64.666195 v 2.071237 h -2.07077 v -2.071237 z m 3.10697,0 v 2.071237 h -1.03562 V 64.666195 Z M 41.409704,66.527868 v 3.000057 H 29.40943 v -3.000057 z m 154.295746,5.387519 v 4.142147 c -7e-5,0.571902 0.46372,1.035619 1.03561,1.035619 h 16.56904 c 0.5719,7.1e-5 1.03562,-0.463717 1.03562,-1.035619 v -4.142147 c 5e-5,-0.571902 -0.46372,-1.03562 -1.03562,-1.03562 h -16.56904 c -0.57189,-4.6e-5 -1.03561,0.463718 -1.03561,1.03562 z M 41.409704,72.528122 v 3.000057 H 29.40943 V 72.528122 Z M 199.8476,72.95124 v 2.070769 h -2.07077 V 72.95124 Z m 3.10697,0 v 2.070769 h -1.03562 V 72.95124 Z m -7.24912,7.249122 v 4.142149 c -7e-5,0.571901 0.46372,1.035854 1.03561,1.035618 h 16.56904 c 0.5719,7.2e-5 1.03562,-0.463717 1.03562,-1.035618 v -4.142149 c 5e-5,-0.571901 -0.46372,-1.035853 -1.03562,-1.035619 h -16.56904 c -0.57189,-6.9e-5 -1.03561,0.463718 -1.03561,1.035619 z m 4.14215,1.035151 v 2.071238 h -2.07077 v -2.071238 z m 3.10697,0 v 2.071238 h -1.03562 V 81.235513 Z M 41.409704,87.528476 v 3.000057 h -3.000057 v -3.000057 z m 4.550693,48.336844 H 67.11481 V 103.18223 C 59.499338,99.69229 52.412588,95.460854 45.960397,90.489789 Z M 172.8852,103.18223 v 32.68309 h 21.15389 V 90.489858 c -6.45175,4.971065 -13.53844,9.201685 -21.15389,12.692442 z m -66.98804,32.68309 c -1.8e-4,0 -3.3e-4,0 -5.2e-4,0 z m 28.20519,0 h 4.9e-4 c -1.8e-4,0 -3.1e-4,0 -4.9e-4,0 z"
       id="path31"
       fill="#ffffff"
       stroke-width="0"
       style="mix-blend-mode:normal" />
  </g>
</svg>
